<svg width="50" height="21" viewBox="0 0 50 21" fill="none" xmlns="http://www.w3.org/2000/svg">
<path fill-rule="evenodd" clip-rule="evenodd" d="M23.0603 16.1043V10.0624H26.1786C27.4564 10.0624 28.535 9.63427 29.4142 8.78983L29.6252 8.57574C31.2313 6.82739 31.1258 4.10378 29.4142 2.48626C28.5584 1.62993 27.3861 1.16608 26.1786 1.18987H21.1729V16.1043H23.0603ZM23.0605 8.23081V3.02144H26.2262C26.9063 3.02144 27.5512 3.2831 28.0319 3.75884C29.052 4.7579 29.0754 6.42299 28.0905 7.45773C27.6098 7.96915 26.9297 8.25459 26.2262 8.23081H23.0605ZM38.4293 6.69658C37.6204 5.94729 36.5185 5.56669 35.1234 5.56669C33.3298 5.56669 31.9816 6.23273 31.0906 7.55291L32.7553 8.61144C33.3649 7.70753 34.1973 7.25558 35.2524 7.25558C35.9206 7.25558 36.5653 7.50534 37.0694 7.95729C37.5618 8.38546 37.8432 9.00392 37.8432 9.65807V10.0981C37.1163 9.69375 36.2019 9.47966 35.0765 9.47966C33.7635 9.47966 32.7084 9.78889 31.923 10.4193C31.1375 11.0496 30.739 11.8822 30.739 12.9407C30.7155 13.9041 31.1258 14.8199 31.8527 15.4383C32.5912 16.1044 33.5291 16.4374 34.631 16.4374C35.9323 16.4374 36.9639 15.8546 37.7494 14.689H37.8314V16.1044H39.6368V9.81268C39.6368 8.4925 39.2382 7.44587 38.4293 6.69658ZM33.3066 14.2252C32.9197 13.9397 32.6852 13.4759 32.6852 12.9764C32.6852 12.4174 32.9432 11.9535 33.4473 11.5848C33.9632 11.2161 34.6081 11.0258 35.3702 11.0258C36.4255 11.0139 37.2462 11.2518 37.8325 11.7275C37.8325 12.5363 37.5159 13.238 36.8945 13.8327C36.3317 14.4036 35.5696 14.7247 34.7723 14.7247C34.2446 14.7366 33.7287 14.5582 33.3066 14.2252ZM43.693 20.5882L50.0001 5.89972H47.9485L45.0295 13.2261H44.9943L42.0049 5.89972H39.9534L44.0916 15.4502L41.747 20.5882H43.693Z" fill="#3C4043"/>
<path d="M16.5442 8.75414C16.5442 8.17136 16.4973 7.58857 16.4035 7.01768H8.44354V10.3122H13.0038C12.8163 11.3707 12.2067 12.3222 11.3157 12.9169V15.0577H14.0355C15.6298 13.571 16.5442 11.3707 16.5442 8.75414Z" fill="#4285F4"/>
<path d="M8.44388 17.1272C10.7182 17.1272 12.6408 16.366 14.0358 15.0577L11.316 12.9169C10.554 13.4402 9.58102 13.7375 8.44388 13.7375C6.23993 13.7375 4.37596 12.2271 3.70774 10.2052H0.905914V12.4173C2.33613 15.3075 5.25519 17.1272 8.44388 17.1272Z" fill="#34A853"/>
<path d="M3.70806 10.2052C3.35631 9.14667 3.35631 7.99299 3.70806 6.92258V4.72227H0.905785C-0.301888 7.13666 -0.301888 9.99111 0.905785 12.4055L3.70806 10.2052Z" fill="#FBBC04"/>
<path d="M8.44388 3.39017C9.65136 3.36638 10.8119 3.83023 11.6795 4.67467L14.0944 2.22461C12.5587 0.773597 10.5423 -0.0232694 8.44388 0.000517618C5.25519 0.000517618 2.33613 1.83212 0.905914 4.72225L3.70774 6.93444C4.37596 4.90065 6.23993 3.39017 8.44388 3.39017Z" fill="#EA4335"/>
</svg>
